<svg width="124" height="131" viewBox="0 0 124 131" fill="none" xmlns="http://www.w3.org/2000/svg">
<path d="M74.4037 41.9019C74.4037 43.5972 73.0331 44.9699 71.3398 44.9699H28.4452C26.754 44.9699 25.3813 43.5972 25.3813 41.9019V23.5062C25.3813 21.8129 26.754 20.4403 28.4452 20.4403H71.3398C73.0331 20.4403 74.4037 21.8129 74.4037 23.5062V41.9019ZM31.5091 38.8359H68.2759V26.5722H31.5091V38.8359Z" fill="#C23E3E"/>
<path d="M84.7678 130.818H11.2343C5.03909 130.818 0 125.775 0 119.576C0 113.376 5.03909 108.333 11.2343 108.333H84.7678C90.961 108.333 96.0021 113.376 96.0021 119.576C96.0021 125.775 90.9589 130.818 84.7678 130.818ZM11.2322 114.467C8.4155 114.467 6.12575 116.759 6.12575 119.576C6.12575 122.394 8.4155 124.686 11.2322 124.686H84.7657C87.5825 124.686 89.8722 122.394 89.8722 119.576C89.8722 116.759 87.5825 114.467 84.7657 114.467H11.2322Z" fill="#C23E3E"/>
<path d="M75.2942 102.201H23.9168C16.3571 102.201 11.0811 96.0491 11.0811 88.4874V19.419C11.0811 8.71168 18.9165 0 29.6156 0H66.3824C77.0815 0 86.6572 8.71168 86.6572 19.419V91.7024C86.6592 97.4911 81.0809 102.201 75.2942 102.201ZM29.6156 6.13188C22.295 6.13188 17.2089 12.0922 17.2089 19.419V88.4874C17.2089 92.6686 19.7376 96.0695 23.9168 96.0695H75.2922C77.7004 96.0695 80.5294 94.1106 80.5294 91.7024V19.419C80.5294 12.0922 73.7031 6.13188 66.3824 6.13188H29.6156Z" fill="#C23E3E"/>
<path d="M110.929 77.6739H110.692C103.627 77.6739 96.8722 73.1842 96.8722 65.931V38.5561C96.8722 34.6731 94.7704 32.704 92.3458 32.704H83.7465C82.0552 32.704 80.6826 31.3314 80.6826 29.6381C80.6826 27.9448 82.0552 26.5721 83.7465 26.5721H92.3458C98.3817 26.5721 103 31.1639 103 38.5561V65.931C103 69.2379 106.642 71.542 110.692 71.542H110.929C114.631 71.542 117.298 69.7057 117.298 65.931V30.4347L104.661 16.6717C103.539 15.4032 103.435 13.4668 104.704 12.3434C105.966 11.2179 107.794 11.3364 108.917 12.6008L122.274 27.236C122.77 27.7957 123.426 28.5187 123.426 29.2704V65.931C123.426 73.0637 117.991 77.6739 110.929 77.6739Z" fill="#C23E3E"/>
<path d="M50.1703 90.3523C44.8493 90.3523 41.0889 89.0021 38.6705 86.2201C36.3337 83.532 35.5003 79.6429 36.1948 74.6672C37.5634 64.879 47.5333 54.3556 47.9561 53.9123C48.528 53.3138 49.3124 52.9727 50.1396 52.9646C50.9975 52.9564 51.7594 53.2812 52.3416 53.8654C53.4997 55.0276 63.6923 65.4939 64.7789 74.7325C65.3468 79.5898 64.4215 83.4197 62.0255 86.1159C59.5254 88.9265 55.5382 90.3523 50.1703 90.3523ZM50.2336 60.6263C47.4945 63.9701 43.0191 70.1285 42.2654 75.5148C41.8263 78.6584 42.1735 80.9053 43.2969 82.1962C44.4633 83.5402 46.7775 84.2204 50.1723 84.2204C53.7142 84.2204 56.1633 83.4871 57.4481 82.0409C58.6307 80.7092 59.0495 78.4909 58.692 75.4495C58.1344 70.678 53.5038 64.4092 50.2336 60.6263Z" fill="#C23E3E"/>
<path d="M40.7008 41.9019C39.0095 41.9019 37.6369 40.5313 37.6369 38.8359V32.7041C37.6369 31.0107 39.0095 29.6381 40.7008 29.6381C42.3941 29.6381 43.7647 31.0107 43.7647 32.7041V38.8359C43.7647 40.5313 42.3941 41.9019 40.7008 41.9019Z" fill="#C23E3E"/>
<path d="M50.9138 41.9019C49.2225 41.9019 47.8499 40.5313 47.8499 38.836V36.7934C47.8499 35.098 49.2225 33.7274 50.9138 33.7274C52.6071 33.7274 53.9777 35.098 53.9777 36.7934V38.836C53.9777 40.5313 52.6071 41.9019 50.9138 41.9019Z" fill="#C23E3E"/>
<path d="M61.1268 41.9019C59.4355 41.9019 58.0629 40.5313 58.0629 38.8359V32.7041C58.0629 31.0107 59.4355 29.6381 61.1268 29.6381C62.8201 29.6381 64.1907 31.0107 64.1907 32.7041V38.8359C64.1907 40.5313 62.818 41.9019 61.1268 41.9019Z" fill="#C23E3E"/>
</svg>
