<svg width="24" height="22" viewBox="0 0 24 22" fill="none" xmlns="http://www.w3.org/2000/svg">
<path d="M7.78125 2.34375C7.78125 2.60266 7.57141 2.8125 7.3125 2.8125C7.05359 2.8125 6.84375 2.60266 6.84375 2.34375C6.84375 2.08484 7.05359 1.875 7.3125 1.875C7.57141 1.875 7.78125 2.08484 7.78125 2.34375Z" fill="#3F3F3F"/>
<path d="M5.90625 2.34375C5.90625 2.60266 5.69641 2.8125 5.4375 2.8125C5.17859 2.8125 4.96875 2.60266 4.96875 2.34375C4.96875 2.08484 5.17859 1.875 5.4375 1.875C5.69641 1.875 5.90625 2.08484 5.90625 2.34375Z" fill="#3F3F3F"/>
<path d="M4.03125 2.34375C4.03125 2.60266 3.82141 2.8125 3.5625 2.8125C3.30359 2.8125 3.09375 2.60266 3.09375 2.34375C3.09375 2.08484 3.30359 1.875 3.5625 1.875C3.82141 1.875 4.03125 2.08484 4.03125 2.34375Z" fill="#3F3F3F"/>
<path d="M20.4375 6.5625H3.5625C3.30359 6.5625 3.09375 6.77234 3.09375 7.03125V9.84375C3.09375 10.1027 3.30359 10.3125 3.5625 10.3125H20.4375C20.6964 10.3125 20.9062 10.1027 20.9062 9.84375V7.03125C20.9062 6.77234 20.6964 6.5625 20.4375 6.5625ZM19.9688 9.375H4.03125V7.5H19.9688V9.375Z" fill="#3F3F3F"/>
<path d="M12 12.1875H3.5625C3.30359 12.1875 3.09375 12.3973 3.09375 12.6562V18.2812C3.09375 18.5402 3.30359 18.75 3.5625 18.75H12C12.2589 18.75 12.4688 18.5402 12.4688 18.2812V12.6562C12.4688 12.3973 12.2589 12.1875 12 12.1875ZM11.5312 17.8125H4.03125V13.125H11.5312V17.8125Z" fill="#3F3F3F"/>
<path d="M20.4375 12.1875H14.8125C14.5536 12.1875 14.3438 12.3973 14.3438 12.6562V18.2812C14.3438 18.5402 14.5536 18.75 14.8125 18.75H20.4375C20.6964 18.75 20.9062 18.5402 20.9062 18.2812V12.6562C20.9062 12.3973 20.6964 12.1875 20.4375 12.1875ZM19.9688 17.8125H15.2812V13.125H19.9688V17.8125Z" fill="#3F3F3F"/>
<path d="M12.4688 0.46875C12.4688 0.727661 12.2589 0.9375 12 0.9375C11.7411 0.9375 11.5312 0.727661 11.5312 0.46875C11.5312 0.209839 11.7411 0 12 0C12.2589 0 12.4688 0.209839 12.4688 0.46875Z" fill="#3F3F3F"/>
<path d="M22.5938 0H14.1094C13.8505 0 13.6406 0.209839 13.6406 0.46875C13.6406 0.727661 13.8505 0.9375 14.1094 0.9375H22.5938C22.8523 0.9375 23.0625 1.14771 23.0625 1.40625V3.75H0.9375V1.40625C0.9375 1.14771 1.14771 0.9375 1.40625 0.9375H9.89062C10.1495 0.9375 10.3594 0.727661 10.3594 0.46875C10.3594 0.209839 10.1495 0 9.89062 0H1.40625C0.630798 0 0 0.630798 0 1.40625V20.1562C0 20.9317 0.630798 21.5625 1.40625 21.5625H22.5938C23.3692 21.5625 24 20.9317 24 20.1562V1.40625C24 0.630798 23.3692 0 22.5938 0ZM22.5938 20.625H1.40625C1.14771 20.625 0.9375 20.4148 0.9375 20.1562V4.6875H23.0625V20.1562C23.0625 20.4148 22.8523 20.625 22.5938 20.625Z" fill="#3F3F3F"/>
</svg>
