<svg width="24" height="12" viewBox="0 0 24 12" xmlns="http://www.w3.org/2000/svg">
<path d="M4.49998 7C3.122 7 2 8.122 2 9.49998C2 10.878 3.122 12 4.49998 12C5.87797 12 6.99997 10.878 6.99997 9.50003C6.99997 8.12205 5.87797 7 4.49998 7ZM4.49998 11C3.67297 11 2.99998 10.327 2.99998 9.50003C2.99998 8.67301 3.67297 8.00003 4.49998 8.00003C5.327 8.00003 5.99998 8.67301 5.99998 9.50003C5.99998 10.327 5.327 11 4.49998 11Z" />
<path d="M19.5 7C18.122 7 17 8.122 17 9.49998C17 10.878 18.122 12 19.5 12C20.878 12 22 10.878 22 9.50003C22 8.12205 20.878 7 19.5 7ZM19.5 11C18.673 11 18 10.327 18 9.50003C18 8.67301 18.673 8.00003 19.5 8.00003C20.327 8.00003 21 8.67301 21 9.50003C21 10.327 20.327 11 19.5 11Z" />
<path d="M21 3.99998H20.154C19.845 3.99998 19.542 3.894 19.3 3.69998L15.36 0.547969C14.918 0.195 14.363 0 13.798 0H6.57C5.73202 0 4.95502 0.416016 4.49002 1.113L3.639 2.391C3.384 2.772 2.958 3 2.49998 3C1.122 3 0 4.122 0 5.49998V7.5C0 8.87798 1.122 9.99998 2.49998 9.99998C2.77598 9.99998 3 9.77597 3 9.49997C3 9.22397 2.77598 9 2.49998 9C1.67297 9 0.999984 8.32702 0.999984 7.5V5.49998C0.999984 4.67297 1.67297 3.99998 2.49998 3.99998C3.294 3.99998 4.02998 3.606 4.47098 2.94497L5.322 1.66795C5.601 1.24997 6.06802 0.999938 6.57 0.999938H13.798C14.138 0.999938 14.47 1.11694 14.736 1.32895L18.676 4.47994C19.093 4.81495 19.619 4.99992 20.155 4.99992H21C22.467 4.99992 23 6.49491 23 7.49991C23 8.48489 22.246 8.99991 21.5 8.99991C21.224 8.99991 21 9.22392 21 9.49992C21 9.77592 21.224 9.99994 21.5 9.99994C22.925 9.99998 24 8.925 24 7.5C24 5.80298 22.949 3.99998 21 3.99998Z" />
<path d="M17.5 9H6.50002C6.22402 9 6 9.22402 6 9.50002C6 9.77602 6.22402 10 6.50002 10H17.5C17.776 10 18 9.77602 18 9.50002C18 9.22402 17.776 9 17.5 9Z" />
<path d="M16.5 4.00002H12V2.50002C12 2.22402 11.776 2 11.5 2C11.224 2 11 2.22402 11 2.50002V4.50003C11 4.77603 11.224 5.00005 11.5 5.00005H16.5C16.776 5.00005 17 4.77603 17 4.50003C17 4.22403 16.776 4.00002 16.5 4.00002Z"/>
<path d="M9.50006 4.00002H6.30905L6.94805 2.72404C7.07105 2.47706 6.97106 2.17706 6.72403 2.05302C6.47602 1.93002 6.17705 2.02902 6.05302 2.27704L5.05303 4.27706C4.97503 4.43104 4.98403 4.61606 5.07502 4.76306C5.166 4.91006 5.32702 5.00006 5.50003 5.00006H9.50002C9.77602 5.00006 10 4.77604 10 4.50004C10 4.22404 9.77606 4.00002 9.50006 4.00002Z" />
<path d="M13.5 6H12.5C12.224 6 12 6.22402 12 6.50002C12 6.77602 12.224 7.00003 12.5 7.00003H13.5C13.776 7.00003 14 6.77602 14 6.50002C14 6.22402 13.776 6 13.5 6Z" />
</svg>
