<svg width="123" height="134" viewBox="0 0 123 134" fill="none" xmlns="http://www.w3.org/2000/svg">
<path d="M53.4474 69.0515C51.3102 69.0494 49.3881 67.8627 48.4313 65.9511L32.1044 33.3307C32.0438 33.2137 31.9936 33.0946 31.9498 32.9714C31.816 32.5891 31.6573 32.167 31.488 31.7179C30.6189 29.401 29.5347 26.5137 29.5347 23.9566C29.5347 10.7467 40.2751 0 53.4745 0C66.676 0 77.4144 10.7467 77.4144 23.9566C77.4144 26.5096 76.3364 29.3864 75.4694 31.7012C75.2981 32.1545 75.1351 32.5807 74.9993 32.9693C74.9575 33.0946 74.9032 33.2158 74.8447 33.3328L58.4572 65.9574C57.5004 67.8669 55.5804 69.0515 53.4474 69.0515ZM37.7911 30.69L53.4474 61.9692L69.158 30.69C69.2917 30.3181 69.4421 29.917 69.6009 29.4971C70.2548 27.7547 71.1469 25.371 71.1469 23.9566C71.1469 14.2064 63.2185 6.27171 53.4745 6.27171C43.7306 6.27171 35.8022 14.2064 35.8022 23.9566C35.8022 25.3772 36.7005 27.7672 37.3545 29.5138C37.5132 29.9295 37.6595 30.3244 37.7911 30.69Z" fill="#C23E3E"/>
<path d="M53.4745 38.1482C45.7195 38.1482 39.4123 31.8347 39.4123 24.0755C39.4123 18.6479 42.5837 13.6464 47.4953 11.3357C49.0685 10.5983 50.9278 11.2731 51.6653 12.8399C52.4028 14.4068 51.728 16.2745 50.1632 17.012C47.441 18.2927 45.6798 21.0671 45.6798 24.0755C45.6798 28.3771 49.1771 31.8765 53.4745 31.8765C57.772 31.8765 61.2693 28.3771 61.2693 24.0755C61.2693 21.0149 59.4663 18.2237 56.6793 16.9619C55.1041 16.2495 54.4042 14.3922 55.1145 12.8128C55.829 11.2375 57.68 10.5335 59.2636 11.248C64.2881 13.521 67.5368 18.5559 67.5368 24.0755C67.5368 31.8347 61.2275 38.1482 53.4745 38.1482Z" fill="#C23E3E"/>
<path d="M109.302 133.808C101.879 133.808 95.8431 127.766 95.8431 120.341C95.8431 112.914 101.879 106.872 109.302 106.872C116.724 106.872 122.76 112.914 122.76 120.341C122.76 127.766 116.724 133.808 109.302 133.808ZM109.302 113.144C105.336 113.144 102.111 116.371 102.111 120.341C102.111 124.308 105.336 127.536 109.302 127.536C113.267 127.536 116.492 124.308 116.492 120.341C116.492 116.371 113.267 113.144 109.302 113.144Z" fill="#C23E3E"/>
<path d="M53.0442 112.947C45.6235 112.947 39.5878 106.905 39.5878 99.4781C39.5878 92.0511 45.6235 86.0092 53.0442 86.0092C60.4671 86.0092 66.5048 92.0511 66.5048 99.4781C66.5048 106.905 60.4671 112.947 53.0442 112.947ZM53.0442 92.2809C49.081 92.2809 45.8554 95.5107 45.8554 99.4781C45.8554 103.445 49.081 106.675 53.0442 106.675C57.0116 106.675 60.2372 103.445 60.2372 99.4781C60.2372 95.5107 57.0116 92.2809 53.0442 92.2809Z" fill="#C23E3E"/>
<path d="M13.4585 131.712C6.03563 131.712 0 125.67 0 118.243C0 110.816 6.03563 104.776 13.4585 104.776C20.8813 104.776 26.9169 110.816 26.9169 118.243C26.9169 125.67 20.8813 131.712 13.4585 131.712ZM13.4585 111.048C9.49322 111.048 6.26753 114.276 6.26753 118.243C6.26753 122.211 9.49322 125.44 13.4585 125.44C17.4237 125.44 20.6494 122.211 20.6494 118.243C20.6494 114.276 17.4237 111.048 13.4585 111.048Z" fill="#C23E3E"/>
<path d="M22.2769 116.022C21.109 116.022 19.9871 115.366 19.4481 114.243C18.7002 112.68 19.3583 110.808 20.9189 110.058L41.9235 99.9776C43.4799 99.2297 45.356 99.8857 46.1039 101.45C46.8519 103.011 46.1938 104.885 44.6332 105.633L23.6286 115.713C23.1919 115.924 22.7302 116.022 22.2769 116.022Z" fill="#C23E3E"/>
<path d="M99.5033 120.205C99.1001 120.205 98.6885 120.125 98.2915 119.958L61.896 104.643C60.302 103.972 59.5499 102.133 60.2226 100.537C60.8911 98.9412 62.7296 98.1891 64.3257 98.8618L100.719 114.175C102.315 114.848 103.067 116.687 102.395 118.283C101.891 119.482 100.728 120.205 99.5033 120.205Z" fill="#C23E3E"/>
<path d="M53.0463 92.7616C53.0108 92.7616 52.9753 92.7616 52.9377 92.7616C51.2099 92.7616 49.854 91.0109 49.9125 89.2811L50.3429 76.3512C50.4035 74.6192 51.8429 73.2069 53.5811 73.2634C55.3089 73.3198 56.6668 74.7404 56.6063 76.4723L56.1759 89.5067C56.1195 91.201 54.7281 92.7616 53.0463 92.7616Z" fill="#C23E3E"/>
</svg>
