<svg width="32" height="18" viewBox="0 0 32 18" fill="none" xmlns="http://www.w3.org/2000/svg">
<path d="M29.4406 6.92382L26.9458 5.66814L24.7438 1.79588C24.1074 0.67349 22.9873 -0.00696124 21.7845 5.37186e-05H12.4037C11.3155 5.37186e-05 10.2845 0.554235 9.62261 1.50827L6.77783 5.61202L2.03653 7.04307C0.833705 7.40785 0 8.62144 0 9.99637V11.9956C0 13.6862 1.22192 15.0822 2.75568 15.0822H3.16299C3.65303 17.1657 5.58137 18.4143 7.47152 17.8742C8.71253 17.5164 9.68625 16.4501 10.0045 15.0822H20.6962C21.1863 17.1657 23.1146 18.4143 25.0048 17.8742C26.2458 17.5164 27.2195 16.4501 27.5377 15.0822H28.3014C29.8352 15.0822 31.0571 13.6862 31.0571 11.9956V9.71577C31.0635 8.51622 30.427 7.42188 29.4406 6.92382ZM6.58054 16.5834C5.33316 16.5834 4.32126 15.468 4.32126 14.0931C4.32126 12.7182 5.33316 11.6028 6.58054 11.6028C7.82791 11.6028 8.83982 12.7182 8.83982 14.0931C8.84618 15.461 7.83428 16.5764 6.58054 16.5834ZM24.1138 16.5834C22.8664 16.5834 21.8545 15.468 21.8545 14.0931C21.8545 12.7182 22.8664 11.6028 24.1138 11.6028C25.3612 11.6028 26.3731 12.7182 26.3731 14.0931C26.3794 15.461 25.3675 16.5764 24.1138 16.5834ZM28.3014 13.6792H27.6268C27.4168 11.5397 25.6666 9.99637 23.7256 10.2349C22.0773 10.4313 20.779 11.8694 20.6008 13.6792H10.0936C9.88354 11.5397 8.13339 9.99637 6.19233 10.2349C4.54401 10.4313 3.24572 11.8694 3.06752 13.6792H2.74932C1.91561 13.6792 1.26647 12.9146 1.26647 11.9956V9.99637C1.2601 9.24577 1.71196 8.59338 2.36747 8.38995L7.32515 6.89576C7.45879 6.85367 7.57971 6.76949 7.66245 6.64322L10.6281 2.35708C11.0545 1.75379 11.71 1.40305 12.4037 1.40305H21.7845C22.5482 1.39603 23.2674 1.82394 23.6683 2.53947L25.9721 6.59412C26.0358 6.71337 26.1376 6.80456 26.2458 6.86068L28.906 8.20054C29.4406 8.47412 29.7843 9.06338 29.7779 9.71577V11.9956H29.7843C29.7843 12.9146 29.1351 13.6792 28.3014 13.6792Z" fill="white"/>
<path d="M17.4983 8.81145H14.525L13.8572 10.6637H12.8921L15.6022 3.56666H16.4211L19.1361 10.6637H18.1759L17.4983 8.81145ZM14.8077 8.0413H17.2205L16.0117 4.72187L14.8077 8.0413Z" fill="white"/>
</svg>
