<svg width="20" height="10" viewBox="0 0 20 10" fill="none" xmlns="http://www.w3.org/2000/svg">
<path d="M1.38929 2.44621H18.0607C18.8276 2.44621 19.45 2.04058 19.45 1.54079C19.45 1.041 18.8276 0.635376 18.0607 0.635376H1.38929C0.6224 0.635376 0 1.041 0 1.54079C0 2.04058 0.6224 2.44621 1.38929 2.44621ZM18.0607 4.25704H1.38929C0.6224 4.25704 0 4.66266 0 5.16245C0 5.66224 0.6224 6.06787 1.38929 6.06787H18.0607C18.8276 6.06787 19.45 5.66224 19.45 5.16245C19.45 4.66266 18.8276 4.25704 18.0607 4.25704ZM18.0607 7.8787H1.38929C0.6224 7.8787 0 8.28432 0 8.78411C0 9.2839 0.6224 9.68953 1.38929 9.68953H18.0607C18.8276 9.68953 19.45 9.2839 19.45 8.78411C19.45 8.28432 18.8276 7.8787 18.0607 7.8787Z" fill="#DEDEDE"/>
</svg>
