<svg width="24" height="20" viewBox="0 0 24 20"  xmlns="http://www.w3.org/2000/svg">
<path d="M22.7461 11.8678L17.7959 11.0426L16.3614 8.89075C15.9893 8.33312 15.3672 8.00012 14.6973 8.00012H7.30276C6.63283 8.00012 6.01075 8.33312 5.6387 8.89075L4.19143 11.0621L1.13672 11.8258C0.467767 11.9928 0 12.5914 0 13.2809V15.7931C0 16.3825 0.2295 16.9367 0.646501 17.3537C1.05764 17.7643 1.626 18.0002 2.20707 18.0002H3.55055C3.78287 19.1399 4.79237 20.0002 6.00001 20.0002C7.20765 20.0002 8.21716 19.1399 8.44947 18.0002H15.0506C15.2829 19.1399 16.2924 20.0002 17.5 20.0002C18.7077 20.0002 19.7172 19.1399 19.9495 18.0002H22.1904C22.5723 18.0002 22.915 17.7888 23.0859 17.4474L23.8945 15.8292C23.9121 15.7941 23.9258 15.757 23.9346 15.7189L23.9873 15.4953C23.9961 15.4581 24 15.4201 24 15.382V13.3473C24 12.6105 23.4727 11.9884 22.7461 11.8678ZM6.00001 19.0001C5.17285 19.0001 4.50001 18.3273 4.50001 17.5001C4.50001 16.673 5.17285 16.0001 6.00001 16.0001C6.82717 16.0001 7.50001 16.673 7.50001 17.5001C7.50001 18.3273 6.82717 19.0001 6.00001 19.0001ZM17.5 19.0001C16.6729 19.0001 16 18.3273 16 17.5001C16 16.673 16.6729 16.0001 17.5 16.0001C18.3272 16.0001 19 16.673 19 17.5001C19 18.3273 18.3272 19.0001 17.5 19.0001ZM23.0001 15.3238L22.1905 17.0001H19.9495C19.7172 15.8604 18.7077 15.0001 17.5001 15.0001C16.2924 15.0001 15.2829 15.8604 15.0506 17.0001H8.44947C8.21716 15.8604 7.20765 15.0001 6.00001 15.0001C4.79237 15.0001 3.78287 15.8604 3.55055 17.0001H2.20702C1.88963 17.0001 1.5781 16.8712 1.35352 16.6466C1.12599 16.4185 0.999986 16.1153 0.999986 15.7931V13.2809C0.999986 13.0509 1.15622 12.8517 1.37888 12.7955L4.62109 11.985C4.74217 11.9552 4.8467 11.881 4.91603 11.7775L6.47073 9.44542C6.65626 9.16661 6.9678 9.00011 7.30276 9.00011H14.6973C15.0323 9.00011 15.3438 9.16661 15.5293 9.44542L17.0841 11.7775C17.1602 11.8927 17.2813 11.9708 17.418 11.9933L22.5821 12.8541C22.8243 12.8942 23.0001 13.1017 23.0001 13.3473V15.3238H23.0001Z"/>
<path d="M15.2071 4.46539C15.4629 4.46539 15.7188 4.36775 15.9141 4.17289C16.3038 3.78322 16.3038 3.14848 15.9141 2.75881C15.5235 2.36913 14.8907 2.36913 14.5 2.75881C14.1103 3.14848 14.1103 3.78322 14.5 4.17289C14.6953 4.36775 14.9512 4.46539 15.2071 4.46539Z"/>
<path d="M6.70704 4.87991C6.8008 4.97366 6.92773 5.0264 7.06058 5.0264H11.3721C11.541 5.3692 11.7598 5.67581 12.0254 5.94046C12.6856 6.60159 13.5645 6.96586 14.5001 6.96586C15.4356 6.96586 16.3145 6.60159 16.9747 5.94046C17.6358 5.27981 18.0001 4.4009 18.0001 3.46583C18.0001 2.53124 17.6358 1.65233 16.9747 0.991203C15.6514 -0.331049 13.3438 -0.329596 12.0264 0.990734C11.7598 1.25586 11.541 1.56252 11.3721 1.90527H7.06058C6.92778 1.90527 6.8008 1.958 6.70704 2.05175L5.6465 3.1123C5.45117 3.30763 5.45117 3.62404 5.6465 3.81932L6.70704 4.87991ZM7.26762 2.9053H11.6993C11.9073 2.9053 12.0929 2.77686 12.1671 2.58257C12.296 2.24075 12.4864 1.94342 12.7325 1.69827C13.6759 0.753922 15.3243 0.753922 16.2677 1.69827C16.7403 2.17044 17.0001 2.79838 17.0001 3.46583C17.0001 4.13333 16.7403 4.76123 16.2677 5.2334C15.3243 6.17774 13.6769 6.17821 12.7315 5.23293C12.4864 4.98829 12.296 4.69091 12.1671 4.34915C12.0929 4.1548 11.9073 4.02641 11.6993 4.02641H7.26762L6.70709 3.46588L7.26762 2.9053Z"/>
<path d="M14.8545 10.2363C14.7637 10.0894 14.6026 10 14.4297 10H7.57033C7.38573 10 7.2168 10.1016 7.12989 10.2641L6.05959 12.2642C5.97658 12.4189 5.98047 12.606 6.07131 12.7568C6.16117 12.9077 6.32425 13 6.50003 13H15.6719C15.8536 13 16.0206 12.9018 16.1085 12.7432C16.1974 12.5845 16.1925 12.3906 16.0968 12.2363L14.8545 10.2363ZM7.33497 12L7.87014 11H14.1514L14.7725 12H7.33497Z"/>
</svg>
