<svg width="143" height="107" viewBox="0 0 143 107" fill="none" xmlns="http://www.w3.org/2000/svg">
<path d="M66.763 73.6039L97.0586 34.1018L76.4865 79.4444C75.1846 82.3136 71.8005 83.586 68.9313 82.2819C66.0598 80.9777 64.7919 77.5913 66.0939 74.7198C66.273 74.3229 66.5089 73.9351 66.763 73.6039Z" fill="#D39191"/>
<path d="M130.743 107H12.155C10.971 107 9.87326 106.385 9.25179 105.376C3.28655 95.632 0 83.3749 0 70.8502C0 31.7836 32.0512 0 71.449 0C110.842 0 142.893 31.8789 142.893 71.0634C142.893 83.629 139.695 95.4937 133.644 105.374C133.025 106.385 131.925 107 130.743 107ZM14.1011 100.191H128.797C133.574 91.7149 136.089 81.6874 136.089 71.0634C136.089 35.6326 107.093 6.80672 71.449 6.80672C35.8028 6.80899 6.80445 35.5351 6.80445 70.8502C6.80445 81.4402 9.38561 91.7807 14.1011 100.191Z" fill="#D39191"/>
<path d="M71.6032 21.8853C69.7252 21.8853 68.201 20.3611 68.201 18.4808V4.86055C68.201 2.98025 69.7252 1.45605 71.6032 1.45605C73.4835 1.45605 75.0054 2.98025 75.0054 4.86055V18.4808C75.0054 20.3588 73.4835 21.8853 71.6032 21.8853Z" fill="#D39191"/>
<path d="M19.6036 68.4142H3.72654C1.84851 68.4142 0.32431 66.89 0.32431 65.0097C0.32431 63.1294 1.84851 61.6052 3.72654 61.6052H19.6036C21.4816 61.6052 23.0058 63.1294 23.0058 65.0097C23.0058 66.89 21.4816 68.4142 19.6036 68.4142Z" fill="#D39191"/>
<path d="M137.547 68.4142H121.67C119.792 68.4142 118.268 66.89 118.268 65.0097C118.268 63.1294 119.792 61.6052 121.67 61.6052H137.547C139.425 61.6052 140.95 63.1294 140.95 65.0097C140.95 66.89 139.425 68.4142 137.547 68.4142Z" fill="#D39191"/>
</svg>
