<svg width="108" height="134" viewBox="0 0 108 134" fill="none" xmlns="http://www.w3.org/2000/svg">
<path d="M53.8845 134C24.4139 134 0.437805 110.007 0.437805 80.5151C0.437805 51.0233 24.4139 27.0302 53.8845 27.0302C83.355 27.0302 107.329 51.0233 107.329 80.5151C107.329 110.007 83.355 134 53.8845 134ZM53.8845 33.406C27.9289 33.406 6.80935 54.5383 6.80935 80.5151C6.80935 106.49 27.9289 127.622 53.8845 127.622C79.8421 127.622 100.957 106.49 100.957 80.5151C100.957 54.5383 79.8421 33.406 53.8845 33.406Z" fill="#D39191"/>
<path d="M53.8845 117.74C33.3723 117.74 16.6852 101.042 16.6852 80.5152C16.6852 59.9882 33.3723 43.2883 53.8845 43.2883C74.3966 43.2883 91.0837 59.9882 91.0837 80.5152C91.0837 101.042 74.3966 117.74 53.8845 117.74ZM53.8845 49.6641C36.8852 49.6641 23.0568 63.5031 23.0568 80.5152C23.0568 97.5251 36.8852 111.364 53.8845 111.364C70.8816 111.364 84.7121 97.5251 84.7121 80.5152C84.7121 63.5031 70.8816 49.6641 53.8845 49.6641Z" fill="#D39191"/>
<path d="M54.031 30.8171C52.2725 30.8171 50.8452 29.3898 50.8452 27.6292V19.1274C50.8452 17.3667 52.2725 15.9395 54.031 15.9395C55.7896 15.9395 57.2168 17.3667 57.2168 19.1274V27.6292C57.2168 29.3898 55.7896 30.8171 54.031 30.8171Z" fill="#D39191"/>
<path d="M49.4201 80.0776L66.687 61.6065L58.525 85.5465C57.5566 88.3861 54.4706 89.9025 51.6332 88.9341C48.7936 87.9656 47.2771 84.8754 48.2456 82.0358C48.4984 81.2925 48.9189 80.6192 49.4201 80.0776Z" fill="#D39191"/>
<path d="M72.0837 13.8135C72.0837 17.9232 68.7535 21.2534 64.6503 21.2534H43.4118C39.3064 21.2534 35.9783 17.9232 35.9783 13.8135V7.43772C35.9783 3.3302 39.3064 0 43.4118 0H64.6503C68.7535 0 72.0837 3.3302 72.0837 7.43772V13.8135ZM65.7122 7.43772C65.7122 6.85154 65.2365 6.37579 64.6503 6.37579H43.4118C42.8235 6.37579 42.3498 6.85154 42.3498 7.43772V13.8135C42.3498 14.3997 42.8235 14.8776 43.4118 14.8776H64.6503C65.2365 14.8776 65.7122 14.3997 65.7122 13.8135V7.43772Z" fill="#D39191"/>
</svg>
