<svg width="52" height="31" viewBox="0 0 52 31" fill="none" xmlns="http://www.w3.org/2000/svg">
<path d="M49.3094 11.6562L45.1572 9.56626L41.4922 3.12127C40.4329 1.25316 38.5686 0.120616 36.5666 0.132292H20.9533C19.142 0.132292 17.426 1.05467 16.3244 2.64257L11.5895 9.47285L3.6981 11.8547C1.69611 12.4618 0.308495 14.4817 0.308495 16.7702V20.0977C0.308495 22.9116 2.34226 25.235 4.89505 25.235H5.57297C6.38859 28.7027 9.59812 30.781 12.7441 29.882C14.8096 29.2865 16.4303 27.5118 16.9599 25.235H34.7553C35.5709 28.7027 38.7805 30.781 41.9264 29.882C43.992 29.2865 45.6126 27.5118 46.1423 25.235H47.4134C49.9662 25.235 51.9999 22.9116 51.9999 20.0977V16.3031C52.0105 14.3066 50.9513 12.4852 49.3094 11.6562ZM11.2611 27.7336C9.18501 27.7336 7.50081 25.8772 7.50081 23.5888C7.50081 21.3003 9.18501 19.4439 11.2611 19.4439C13.3373 19.4439 15.0215 21.3003 15.0215 23.5888C15.0321 25.8655 13.3479 27.722 11.2611 27.7336ZM40.4435 27.7336C38.3674 27.7336 36.6832 25.8772 36.6832 23.5888C36.6832 21.3003 38.3674 19.4439 40.4435 19.4439C42.5196 19.4439 44.2038 21.3003 44.2038 23.5888C44.2144 25.8655 42.5302 27.722 40.4435 27.7336ZM47.4134 22.8999H46.2906C45.941 19.3388 43.0281 16.7702 39.7974 17.1671C37.0539 17.4941 34.893 19.8876 34.5964 22.8999H17.1082C16.7587 19.3388 13.8457 16.7702 10.615 17.1671C7.87154 17.4941 5.71067 19.8876 5.41408 22.8999H4.88446C3.49684 22.8999 2.4164 21.6273 2.4164 20.0977V16.7702C2.40581 15.5209 3.15788 14.435 4.24891 14.0964L12.5005 11.6095C12.7229 11.5394 12.9242 11.3993 13.0619 11.1892L17.998 4.05533C18.7077 3.05122 19.7987 2.46743 20.9533 2.46743H36.5666C37.8377 2.45575 39.0347 3.16797 39.702 4.3589L43.5365 11.1074C43.6424 11.3059 43.8119 11.4577 43.992 11.5511L48.4197 13.7812C49.3094 14.2365 49.8814 15.2173 49.8708 16.3031V20.0977H49.8814C49.8814 21.6273 48.801 22.8999 47.4134 22.8999Z" fill="#C23E3E"/>
<path d="M28.5706 14.1385H26.2856V18.0737H24.9962V8.34594H28.2165C29.3122 8.34594 30.154 8.59537 30.742 9.09423C31.3344 9.59309 31.6306 10.3191 31.6306 11.2723C31.6306 11.8781 31.4658 12.4059 31.1362 12.8557C30.811 13.3056 30.3567 13.6419 29.7732 13.8646L32.0582 17.9936V18.0737H30.6819L28.5706 14.1385ZM26.2856 13.0896H28.2566C28.8935 13.0896 29.3991 12.9248 29.7732 12.5952C30.1518 12.2656 30.3411 11.8246 30.3411 11.2723C30.3411 10.671 30.1607 10.21 29.7999 9.88929C29.4436 9.5686 28.9269 9.40602 28.2499 9.40157H26.2856V13.0896Z" fill="white"/>
</svg>
